<?xml version="1.0" encoding="utf-8"?>
<!-- Generator: Adobe Illustrator 24.0.1, SVG Export Plug-In . SVG Version: 6.00 Build 0)  -->
<svg version="1.1" id="Layer_1" xmlns="http://www.w3.org/2000/svg" xmlns:xlink="http://www.w3.org/1999/xlink" x="0px" y="0px"
	 viewBox="0 0 300 300" style="enable-background:new 0 0 300 300;" xml:space="preserve">
<style type="text/css">
	.st0{fill:url(#SVGID_1_);}
</style>
<g>
	<linearGradient id="SVGID_1_" gradientUnits="userSpaceOnUse" x1="150" y1="84.0601" x2="150" y2="215.9399">
		<stop  offset="0" style="stop-color:#B4BCE0"/>
		<stop  offset="1" style="stop-color:#ECD8EA"/>
	</linearGradient>
	<path class="st0" d="M191.5,97.1c10.8,8.7,17.8,20.4,21,35.2h-33.2c-2.4-6-6.2-10.7-11.3-14.1c-5.1-3.4-11.1-5.1-18-5.1
		c-9.2,0-16.5,3.4-22.2,10.1c-5.6,6.7-8.4,15.7-8.4,26.9c0,11.2,2.8,20.2,8.4,26.8c5.6,6.7,13,10,22.2,10c7,0,13-1.7,18-5.1
		c5.1-3.4,8.8-8.1,11.3-13.9h33.2c-3.2,14.7-10.2,26.3-21,35.1c-10.8,8.7-24.5,13.1-40.9,13.1c-12.6,0-23.6-2.8-33.2-8.3
		c-9.5-5.6-16.9-13.3-22.1-23.4c-5.2-10-7.8-21.4-7.8-34.3c0-12.8,2.6-24.2,7.8-34.3c5.2-10,12.5-17.8,22.1-23.4
		c9.5-5.6,20.6-8.3,33.2-8.3C167,84.1,180.7,88.4,191.5,97.1z"/>
</g>
</svg>
